HIERARCHY
ROOT hip
{
  OFFSET 0 0 0
  CHANNELS 6 Xposition Yposition Zposition Zrotation Yrotation Xrotation
  JOINT abdomen
  {
    OFFSET 0 20.6881 -0.73152
    CHANNELS 3 Zrotation Xrotation Yrotation
    JOINT chest
    {
      OFFSET 0 11.7043 -0.48768
      CHANNELS 3 Zrotation Xrotation Yrotation
      JOINT neck
      {
        OFFSET 0 22.1894 -2.19456
        CHANNELS 3 Zrotation Xrotation Yrotation
        JOINT head
        {
          OFFSET -0.24384 7.07133 1.2192
          CHANNELS 3 Zrotation Xrotation Yrotation
          JOINT leftEye
          {
            OFFSET 4.14528 8.04674 8.04672
            CHANNELS 3 Zrotation Xrotation Yrotation
            End Site
            {
              OFFSET 1 0 0
            }
          }
          JOINT rightEye
          {
            OFFSET -3.6576 8.04674 8.04672
            CHANNELS 3 Zrotation Xrotation Yrotation
            End Site
            {
              OFFSET 1 0 0
            }
          }
        }
      }
      JOINT rCollar
      {
        OFFSET -2.68224 19.2634 -4.8768
        CHANNELS 3 Zrotation Xrotation Yrotation
        JOINT rShldr
        {
          OFFSET -8.77824 -1.95073 1.46304
          CHANNELS 3 Zrotation Xrotation Yrotation
          JOINT rForeArm
          {
            OFFSET -28.1742 -1.7115 0.48768
            CHANNELS 3 Zrotation Xrotation Yrotation
            JOINT rHand
            {
              OFFSET -22.5879 0.773209 7.07136
              CHANNELS 3 Zrotation Xrotation Yrotation
              JOINT rThumb1
              {
                OFFSET -1.2192 -0.487915 3.41376
                CHANNELS 3 Zrotation Xrotation Yrotation
                JOINT rThumb2
                {
                  OFFSET -3.37035 -0.52449 3.41376
                  CHANNELS 3 Zrotation Xrotation Yrotation
                  End Site
                  {
                    OFFSET -1.78271 -1.18214 1.43049
                  }
                }
              }
              JOINT rIndex1
              {
                OFFSET -7.75947 0.938293 5.60832
                CHANNELS 3 Zrotation Xrotation Yrotation
                JOINT rIndex2
                {
                  OFFSET -2.54057 -0.884171 1.56538
                  CHANNELS 3 Zrotation Xrotation Yrotation
                  End Site
                  {
                    OFFSET -1.62519 -0.234802 1.16502
                  }
                }
              }
              JOINT rMid1
              {
                OFFSET -8.24714 1.18213 3.41376
                CHANNELS 3 Zrotation Xrotation Yrotation
                JOINT rMid2
                {
                  OFFSET -3.10165 -0.590103 1.0647
                  CHANNELS 3 Zrotation Xrotation Yrotation
                  End Site
                  {
                    OFFSET -2.48547 -0.328903 0.83742
                  }
                }
              }
              JOINT rRing1
              {
                OFFSET -8.82822 0.546677 1.51678
                CHANNELS 3 Zrotation Xrotation Yrotation
                JOINT rRing2
                {
                  OFFSET -2.60934 -0.819778 -0.0198488
                  CHANNELS 3 Zrotation Xrotation Yrotation
                  End Site
                  {
                    OFFSET -2.33842 -0.294052 0.168128
                  }
                }
              }
              JOINT rPinky1
              {
                OFFSET -8.27202 -0.0477905 -0.4584
                CHANNELS 3 Zrotation Xrotation Yrotation
                JOINT rPinky2
                {
                  OFFSET -1.82734 -0.647385 -0.700984
                  CHANNELS 3 Zrotation Xrotation Yrotation
                  End Site
                  {
                    OFFSET -1.69225 -0.51767 -0.607171
                  }
                }
              }
            }
          }
        }
      }
      JOINT lCollar
      {
        OFFSET 2.68224 19.2634 -4.8768
        CHANNELS 3 Zrotation Xrotation Yrotation
        JOINT lShldr
        {
          OFFSET 8.77824 -1.95073 1.46304
          CHANNELS 3 Zrotation Xrotation Yrotation
          JOINT lForeArm
          {
            OFFSET 28.1742 -1.7115 0.48768
            CHANNELS 3 Zrotation Xrotation Yrotation
            JOINT lHand
            {
              OFFSET 22.5879 0.773209 7.07136
              CHANNELS 3 Zrotation Xrotation Yrotation
              JOINT lThumb1
              {
                OFFSET 1.2192 -0.487915 3.41376
                CHANNELS 3 Zrotation Xrotation Yrotation
                JOINT lThumb2
                {
                  OFFSET 3.37035 -0.52449 3.41376
                  CHANNELS 3 Zrotation Xrotation Yrotation
                  End Site
                  {
                    OFFSET 1.78271 -1.18214 1.43049
                  }
                }
              }
              JOINT lIndex1
              {
                OFFSET 7.75947 0.938293 5.60832
                CHANNELS 3 Zrotation Xrotation Yrotation
                JOINT lIndex2
                {
                  OFFSET 2.54057 -0.884171 1.56538
                  CHANNELS 3 Zrotation Xrotation Yrotation
                  End Site
                  {
                    OFFSET 1.62519 -0.234802 1.16502
                  }
                }
              }
              JOINT lMid1
              {
                OFFSET 8.24714 1.18213 3.41376
                CHANNELS 3 Zrotation Xrotation Yrotation
                JOINT lMid2
                {
                  OFFSET 3.10165 -0.590103 1.0647
                  CHANNELS 3 Zrotation Xrotation Yrotation
                  End Site
                  {
                    OFFSET 2.48547 -0.328903 0.83742
                  }
                }
              }
              JOINT lRing1
              {
                OFFSET 8.82822 0.546677 1.51678
                CHANNELS 3 Zrotation Xrotation Yrotation
                JOINT lRing2
                {
                  OFFSET 2.60934 -0.819778 -0.0198488
                  CHANNELS 3 Zrotation Xrotation Yrotation
                  End Site
                  {
                    OFFSET 2.33842 -0.294052 0.168128
                  }
                }
              }
              JOINT lPinky1
              {
                OFFSET 8.27202 -0.0477905 -0.4584
                CHANNELS 3 Zrotation Xrotation Yrotation
                JOINT lPinky2
                {
                  OFFSET 1.82734 -0.647385 -0.700984
                  CHANNELS 3 Zrotation Xrotation Yrotation
                  End Site
                  {
                    OFFSET 1.69225 -0.51767 -0.607171
                  }
                }
              }
            }
          }
        }
      }
    }
  }
  JOINT rButtock
  {
    OFFSET -8.77824 4.35084 1.2192
    CHANNELS 3 Zrotation Xrotation Yrotation
    JOINT rThigh
    {
      OFFSET 0 -1.70687 -2.19456
      CHANNELS 3 Zrotation Xrotation Yrotation
      JOINT rShin
      {
        OFFSET 0 -36.8199 0.73152
        CHANNELS 3 Zrotation Xrotation Yrotation
        JOINT rFoot
        {
          OFFSET 0.73152 -45.1104 -5.12064
          CHANNELS 3 Zrotation Xrotation Yrotation
          End Site
          {
            OFFSET -1.1221 -3.69964 12.103
          }
        }
      }
    }
  }
  JOINT lButtock
  {
    OFFSET 8.77824 4.35084 1.2192
    CHANNELS 3 Zrotation Xrotation Yrotation
    JOINT lThigh
    {
      OFFSET 0 -1.70687 -2.19456
      CHANNELS 3 Zrotation Xrotation Yrotation
      JOINT lShin
      {
        OFFSET 0 -36.8199 0.73152
        CHANNELS 3 Zrotation Xrotation Yrotation
        JOINT lFoot
        {
          OFFSET -0.73152 -45.1104 -5.12064
          CHANNELS 3 Zrotation Xrotation Yrotation
          End Site
          {
            OFFSET 1.1221 -3.69964 12.103
          }
        }
      }
    }
  }
}
MOTION
Frames:	4
Frame Time:	0.00833333
51.1542 85.5269 143.497 0.0 0.0 0.0 2.34099 -0.00222386 0.0637208 0.646591 0.00595037 0.111937 -2.3187e-14 0.0 2.73329e-16 -6.97175e-14 3.18055e-15 7.45443e-16 -0.0 0.0 0.0 -0.0 0.0 0.0 -1.13821e-14 -1.16475e-18 2.48481e-16 -2.42627e-13 4.9075e-16 2.98177e-15 -4.23312e-12 1.26089e-12 6.04305e-14 -4.83543e-11 -1.26213e-12 4.54819e-13 -1.14084e-10 -1.39799e-14 1.10365e-12 -1.97022e-10 -3.18055e-14 1.88607e-12 -1.14077e-10 -1.23246e-14 1.08775e-12 7.73091 5.47488 0.417314 -1.14083e-10 -1.31198e-14 1.09411e-12 2.90554 0.965183 0.102902 -1.14071e-10 -1.32192e-14 1.09411e-12 10.2786 0.731801 0.0259123 -1.14089e-10 -1.07344e-14 1.09411e-12 2.22167 -0.733487 -0.20892 -1.13795e-14 1.55301e-18 4.96962e-17 -2.48118e-13 5.90142e-16 9.93923e-16 -4.21915e-12 -1.26348e-12 1.04958e-13 -4.83821e-11 1.27751e-12 4.07111e-13 -1.14103e-10 1.99832e-14 1.10047e-12 -1.97044e-10 2.8625e-14 1.91231e-12 -1.14109e-10 2.26615e-14 1.10047e-12 -7.73091 5.47488 -0.417314 -1.14104e-10 2.01766e-14 1.09729e-12 -2.90554 0.965183 -0.102902 -1.14114e-10 2.0276e-14 1.10206e-12 -10.2786 0.731801 -0.0259123 -1.14105e-10 1.90833e-14 1.09729e-12 -2.22167 -0.733487 0.20892 -2.03217e-16 0.0 -3.88251e-19 2.21585 -8.02969 -0.231384 0.00606941 8.97361 0.15205 -0.478065 -0.951422 0.0349043 2.03217e-16 0.0 3.88251e-19 1.35242 -1.92788 -0.00536392 0.00846395 -2.07867 0.0694369 0.423488 3.99898 -0.127235
51.9446 84.618 132.007 -179.185 -2.5663 -179.24 3.04029 0.979967 0.97822 0.359985 -2.37022 0.380053 -2.69607 2.73096 -1.31638 4.35856 -4.67068 -1.83959 -0.0 0.0 0.0 -0.0 0.0 0.0 -3.16292e-14 -5.18834e-15 5.23402e-15 22.0487 11.4525 -1.47065 -4.93325 -2.40461 7.52003 0.0517311 5.0488 0.699649 -1.24002e-10 -1.19232e-10 1.4917e-10 -2.12281e-10 -2.08005e-10 2.58412e-10 -1.23994e-10 -1.19232e-10 1.49154e-10 7.73091 5.47488 0.417314 -1.24001e-10 -1.19233e-10 1.49162e-10 2.90554 0.965183 0.102902 -1.2399e-10 -1.19233e-10 1.49162e-10 10.2786 0.731801 0.0259123 -1.24007e-10 -1.1923e-10 1.49164e-10 2.22167 -0.733487 -0.20892 -3.16307e-14 -5.18532e-15 4.97272e-15 -22.1783 9.17448 2.09989 5.05167 -2.48951 -7.66807 -0.0424862 4.57523 -0.635625 2.63127e-11 1.27322e-10 6.45537e-11 4.61547e-11 2.19296e-10 1.09837e-10 2.63075e-11 1.27324e-10 6.45581e-11 -7.73091 5.47488 -0.417314 2.63123e-11 1.27322e-10 6.45512e-11 -2.90554 0.965183 -0.102902 2.63037e-11 1.27322e-10 6.45557e-11 -10.2786 0.731801 -0.0259123 2.63126e-11 1.27321e-10 6.45515e-11 -2.22167 -0.733487 0.20892 -2.03217e-16 0.0 -3.88251e-19 4.5441 -8.49415 3.15624 0.0330365 12.7432 0.22275 -1.33293 -3.85843 -8.30326 2.03217e-16 0.0 3.88251e-19 0.894471 -4.07255 -3.78403 -0.0118176 4.40994 -0.100747 0.882873 -1.52337 3.98551
51.9471 84.6124 132.018 -179.172 -2.5852 -179.182 3.74861 2.0207 1.94749 0.0809467 -4.87954 0.665816 -5.40917 5.61763 -2.71875 8.63755 -9.61064 -3.82374 -0.0 0.0 0.0 -0.0 0.0 0.0 -5.49474e-14 -1.11831e-14 9.17826e-15 46.0491 23.5228 -3.23239 -9.46965 -4.80961 15.514 -0.0296767 10.3836 1.45758 -1.31188e-10 -2.58634e-10 3.19931e-10 -2.22523e-10 -4.50992e-10 5.54151e-10 -1.31179e-10 -2.58636e-10 3.19914e-10 7.73091 5.47488 0.417314 -1.31186e-10 -2.58638e-10 3.19924e-10 2.90554 0.965183 0.102902 -1.31177e-10 -2.58637e-10 3.19924e-10 10.2786 0.731801 0.0259123 -1.31193e-10 -2.58634e-10 3.19928e-10 2.22167 -0.733487 -0.20892 -5.49531e-14 -1.11797e-14 8.84592e-15 -46.3944 18.8252 4.51095 9.6732 -4.9718 -15.8188 0.0243807 9.41652 -1.3221 1.90271e-10 2.81581e-10 1.40141e-10 3.30164e-10 4.85027e-10 2.38411e-10 1.90267e-10 2.81583e-10 1.4015e-10 -7.73091 5.47488 -0.417314 1.90271e-10 2.81581e-10 1.40139e-10 -2.90554 0.965183 -0.102902 1.90264e-10 2.81581e-10 1.40144e-10 -10.2786 0.731801 -0.0259123 1.90273e-10 2.8158e-10 1.4014e-10 -2.22167 -0.733487 0.20892 -2.03217e-16 0.0 -3.88251e-19 7.06577 -8.94926 6.74038 0.0509879 16.7288 0.30098 -3.14845 -6.70417 -17.2014 2.03217e-16 0.0 3.88251e-19 0.102587 -6.30119 -7.80985 0.00924378 11.271 -0.28547 2.2318 -7.28966 8.39424
51.9582 84.6161 131.99 -179.175 -2.454 -179.215 4.34477 2.94124 2.81049 -0.14603 -7.1218 0.922425 -7.70878 8.1755 -3.98523 12.1542 -13.9534 -5.6682 -0.0 0.0 0.0 -0.0 0.0 0.0 -7.21233e-14 -1.55627e-14 1.52051e-14 68.2217 34.2571 -5.23401 -12.9497 -6.71784 22.7046 -0.225941 15.1372 2.16599 -1.43838e-10 -3.57668e-10 4.45302e-10 -2.42797e-10 -6.23953e-10 7.71465e-10 -1.43829e-10 -3.57672e-10 4.45285e-10 7.73091 5.47488 0.417314 -1.43836e-10 -3.57674e-10 4.45298e-10 2.90554 0.965183 0.102902 -1.43828e-10 -3.57673e-10 4.45297e-10 10.2786 0.731801 0.0259123 -1.43842e-10 -3.5767e-10 4.45303e-10 2.22167 -0.733487 -0.20892 -7.21332e-14 -1.55591e-14 1.48188e-14 -68.7635 27.3659 7.00645 13.2034 -6.93462 -23.1616 0.184629 13.7188 -1.95664 3.07145e-10 3.81927e-10 1.9146e-10 5.32552e-10 6.5783e-10 3.25685e-10 3.07141e-10 3.81927e-10 1.91473e-10 -7.73091 5.47488 -0.417314 3.07145e-10 3.81927e-10 1.91459e-10 -2.90554 0.965183 -0.102902 3.07139e-10 3.81926e-10 1.91463e-10 -10.2786 0.731801 -0.0259123 3.07148e-10 3.81925e-10 1.9146e-10 -2.22167 -0.733487 0.20892 -2.03217e-16 0.0 -3.88251e-19 9.36446 -9.32114 9.95577 0.0570731 20.2821 0.374639 -5.51429 -8.87482 -25.2457 2.03217e-16 0.0 3.88251e-19 -0.871308 -8.22438 -11.4318 0.0672344 17.3867 -0.4612 4.20219 -12.2903 12.497
